HIERARCHY
ROOT root
{
	OFFSET	0	13.1	24.9
	CHANNELS 6  Xposition Yposition Zposition Xrotation Yrotation Zrotation
	JOINT spine_1
	{
		OFFSET	0	9.99999	0
		CHANNELS 3  Xrotation Yrotation Zrotation
		JOINT spine_2
		{
			OFFSET	0	112	-10
			CHANNELS 3  Xrotation Yrotation Zrotation
			JOINT spine_3
			{
				OFFSET	0	206.5	19.3
				CHANNELS 3  Xrotation Yrotation Zrotation
				JOINT spine_4
				{
					OFFSET	0	110.4	14.6
					CHANNELS 3  Xrotation Yrotation Zrotation
					JOINT neck_1
					{
						OFFSET	0	71.8	-50.3
						CHANNELS 3  Xrotation Yrotation Zrotation
						JOINT neck_2
						{
							OFFSET	0	86.2	-25.8
							CHANNELS 3  Xrotation Yrotation Zrotation
							JOINT head_ee
							{
								OFFSET	0	179.8	-8.7
								CHANNELS 3  Xrotation Yrotation Zrotation
								End Site
								{
									OFFSET	1	0	0
								}
							}
						}
					}
					JOINT left_clavicle
					{
						OFFSET	-43.2	22.4	-70.8
						CHANNELS 3  Xrotation Yrotation Zrotation
						JOINT left_shoulder
						{
							OFFSET	-93.9	-5.79999	48.7
							CHANNELS 3  Xrotation Yrotation Zrotation
							JOINT left_elbow
							{
								OFFSET	-291.4	-30.8	15.2
								CHANNELS 3  Xrotation Yrotation Zrotation
								JOINT left_lowarm_twist
								{
									OFFSET	-110.7	-3.89999	13.6
									CHANNELS 3  Xrotation Yrotation Zrotation
									JOINT left_hand
									{
										OFFSET	-110.7	-3.89999	13.6
										CHANNELS 3  Xrotation Yrotation Zrotation
										JOINT left_ee
										{
											OFFSET	-80.8	-5.10001	12.1
											CHANNELS 3  Xrotation Yrotation Zrotation
											End Site
											{
												OFFSET	1	0	0
											}
										}
									}
								}
							}
						}
					}
					JOINT right_clavicle
					{
						OFFSET	43.2	22.4	-70.8
						CHANNELS 3  Xrotation Yrotation Zrotation
						JOINT right_shoulder
						{
							OFFSET	93.9	-5.79999	48.7
							CHANNELS 3  Xrotation Yrotation Zrotation
							JOINT right_elbow
							{
								OFFSET	291.4	-30.8	15.2
								CHANNELS 3  Xrotation Yrotation Zrotation
								JOINT right_lowarm_twist
								{
									OFFSET	110.7	-3.89999	13.6
									CHANNELS 3  Xrotation Yrotation Zrotation
									JOINT right_hand
									{
										OFFSET	110.7	-3.89999	13.6
										CHANNELS 3  Xrotation Yrotation Zrotation
										JOINT right_ee
										{
											OFFSET	80.8	-5.10001	12.1
											CHANNELS 3  Xrotation Yrotation Zrotation
											End Site
											{
												OFFSET	1	0	0
											}
										}
									}
								}
							}
						}
					}
				}
			}
		}
	}
	JOINT left_hip
	{
		OFFSET	-82.8	-127.5	0.300001
		CHANNELS 3  Xrotation Yrotation Zrotation
		JOINT left_knee
		{
			OFFSET	-28.2	-396.7	2.2
			CHANNELS 3  Xrotation Yrotation Zrotation
			JOINT left_ankle
			{
				OFFSET	-11.7	-411.3	35.4
				CHANNELS 3  Xrotation Yrotation Zrotation
				JOINT left_toes
				{
					OFFSET	0	-60	-88.6
					CHANNELS 3  Xrotation Yrotation Zrotation
					JOINT left_foot_ee
					{
						OFFSET	-22.5	-16.5	-42.2
						CHANNELS 3  Xrotation Yrotation Zrotation
						End Site
						{
							OFFSET	1	0	0
						}
					}
				}
			}
		}
	}
	JOINT right_hip
	{
		OFFSET	82.8	-127.5	0.300001
		CHANNELS 3  Xrotation Yrotation Zrotation
		JOINT right_knee
		{
			OFFSET	28.2	-396.7	2.2
			CHANNELS 3  Xrotation Yrotation Zrotation
			JOINT right_ankle
			{
				OFFSET	11.7	-411.3	35.4
				CHANNELS 3  Xrotation Yrotation Zrotation
				JOINT right_toes
				{
					OFFSET	0	-60	-88.6
					CHANNELS 3  Xrotation Yrotation Zrotation
					JOINT right_foot_ee
					{
						OFFSET	22.5	-16.5	-42.2
						CHANNELS 3  Xrotation Yrotation Zrotation
						End Site
						{
							OFFSET	1	0	0
						}
					}
				}
			}
		}
	}
}
MOTION
Frames: 9
Frame Time: 0.02
3221.83 616.575 -678.935 -33.044 48.1654 26.9995 7.271 0.353576 0.335919 7.271 0.331484 0.357737 7.27304 0.299994 0.384527 7.27301 0.356957 0.332323 -14.8386 3.4281 2.97174 -14.8323 4.78047 3.93223 -0.0 0.0 -0.0 4.94655 21.3381 9.60694 -36.4006 -10.4267 60.6371 0.201344 -5.69598 0.0100164 29.9982 0.0664096 -3.78803 -0.280299 26.1667 8.7625 -0.0 0.0 -0.0 12.8135 22.1501 -25.6408 90.6514 -62.5064 -12.2906 0.181281 5.1316 -0.00812355 85.1796 4.44804 8.87438 -8.05482 -18.4602 46.9702 0.0 0.0 0.0 48.6518 -5.44036 -4.54753 1.03458 -0.0439832 -0.152666 14.8045 0.0686653 -2.08468 6.25779 -0.0 -0.0 -0.0 0.0 -0.0 13.9599 1.57597 3.30253 -18.897 -0.307133 -2.87051 40.2812 3.2506 4.9318 13.0094 -0.0 -0.0 0.0 0.0 0.0 
3198.19 618.403 -685.427 -31.802 47.8648 26.4659 7.12756 0.170849 0.1587 7.12756 0.160404 0.16925 7.12802 0.145028 0.182597 7.12802 0.172046 0.157401 -15.4016 2.78154 4.35739 -15.3544 2.765 5.04387 -0.0 0.0 -0.0 5.93312 20.8156 11.0859 -34.547 -10.1954 59.9354 0.196239 -5.55247 0.00951616 33.2728 -0.0463436 -4.19099 -1.08765 28.8375 5.36991 -0.0 0.0 -0.0 12.7196 21.6247 -25.4682 90.6177 -63.1375 -11.6282 0.182527 5.16668 -0.00823537 85.2068 4.4513 8.87562 -9.38266 -26.0217 49.2423 0.0 0.0 0.0 47.8804 -5.11552 -4.73402 -2.69834 0.101658 0.401592 17.7261 1.49733 -2.45757 10.6381 -0.0 -0.0 -0.0 0.0 -0.0 13.3566 4.71129 2.7302 -21.7428 -0.270861 -3.30561 40.7239 1.89615 4.95411 10.8404 -0.0 -0.0 0.0 0.0 0.0 
3163.03 616.819 -694.334 -30.3991 47.2495 25.6511 7.32224 0.248179 -0.0931292 7.32221 0.253602 -0.0771481 7.32192 0.259179 -0.0556072 7.322 0.247144 -0.095842 -13.6792 2.03813 4.21103 -13.6303 1.28811 4.63279 -0.0 0.0 -0.0 5.69576 23.6851 10.5783 -36.8581 -10.537 59.3836 0.238862 -6.74833 0.0140829 35.66 -0.142979 -4.48041 -0.84669 23.6072 4.53147 -0.0 0.0 -0.0 12.317 20.1292 -24.6538 90.8586 -63.7519 -8.95083 0.174156 4.93094 -0.00749866 85.3563 4.46923 8.88243 -10.6992 -31.7002 51.9836 0.0 0.0 0.0 47.9615 -5.17292 -4.79088 -8.81599 0.261359 1.32641 22.324 7.60688 -3.01482 17.1526 -0.0 -0.0 -0.0 0.0 -0.0 11.7954 8.66002 3.00033 -23.7641 -0.231991 -3.61335 40.0587 -0.84905 4.8753 8.4399 -0.0 -0.0 0.0 0.0 0.0 
3129.62 615.07 -696.07 -28.8075 46.5226 24.098 7.21134 0.309285 -0.104484 7.21129 0.315307 -0.0845914 7.21091 0.321402 -0.0572264 7.21103 0.308331 -0.107268 -14.4884 1.27597 5.83256 -14.3934 -1.08153 5.93554 -0.0 0.0 -0.0 5.47422 22.2337 10.3394 -35.9848 -9.02711 62.5907 0.198631 -5.61972 0.00974898 35.8572 -0.151498 -4.50414 -1.27355 19.7233 0.362334 -0.0 0.0 -0.0 11.5164 18.8835 -22.9029 90.9814 -64.9334 -7.9426 0.16905 4.78704 -0.00706618 85.4135 4.4761 8.88502 -11.4583 -32.5947 58.3006 0.0 0.0 0.0 47.5602 -4.93453 -4.15212 -12.4797 0.309433 1.88643 21.6871 13.6437 -2.95761 21.9732 -0.0 -0.0 -0.0 0.0 -0.0 11.3031 15.0219 3.04698 -26.9132 -0.149867 -4.08957 40.511 -4.20213 4.9021 9.52078 -0.0 -0.0 0.0 0.0 0.0 
3113.12 616.062 -702.91 -28.042 46.3114 23.2131 7.01678 0.17375 -0.146468 7.01677 0.182718 -0.135115 7.01636 0.19404 -0.118281 7.01638 0.172924 -0.147442 -14.5874 3.53779 6.72279 -14.4654 2.71539 7.50113 -0.0 0.0 -0.0 5.70727 22.0532 10.686 -33.0301 -9.22218 62.9714 0.213151 -6.0276 0.0112223 36.4639 -0.178228 -4.57695 -1.59759 17.1214 -2.77632 -0.0 0.0 -0.0 12.0269 19.4575 -24.0332 89.4197 -64.7042 -7.10469 0.17271 4.8902 -0.00737494 85.2928 4.46162 8.87955 -11.0377 -32.0396 54.7851 0.0 0.0 0.0 47.1094 -4.90359 -3.72312 -14.7251 0.321167 2.23071 19.3361 17.1288 -2.68836 21.9489 -0.0 -0.0 -0.0 0.0 -0.0 12.536 21.105 2.10605 -31.6211 0.0214317 -4.79159 40.719 -8.86117 4.93129 10.9596 -0.0 -0.0 0.0 0.0 0.0 
3080.06 617.874 -715.854 -28.0265 46.6366 23.0496 7.20488 0.186301 -0.0386589 7.20486 0.188383 -0.0267257 7.2048 0.189983 -0.0104444 7.20485 0.185949 -0.0403176 -13.9385 4.71876 5.71531 -13.8681 5.50297 6.89624 -0.0 0.0 -0.0 4.67885 19.2324 9.25542 -28.0297 -9.29797 64.012 0.273038 -7.70296 0.0183816 37.6089 -0.230771 -4.71359 -1.78557 19.8186 -2.63834 -0.0 0.0 -0.0 11.6067 17.6916 -23.1793 90.4983 -65.7805 -2.90828 0.189708 5.36878 -0.00889466 85.2804 4.46013 8.87898 -11.4333 -32.4689 58.3225 0.0 0.0 0.0 46.8976 -4.46791 -2.79845 -18.7003 0.308841 2.84038 24.5957 21.3696 -3.39393 22.7068 -0.0 -0.0 -0.0 0.0 -0.0 12.7668 26.6322 0.920392 -34.3658 0.147759 -5.19373 40.7346 -9.54159 4.93704 13.7639 -0.0 -0.0 0.0 0.0 0.0 
3053.01 625.837 -720.948 -27.4899 47.1788 22.6653 7.05236 0.00340748 -0.12175 7.05237 0.0111478 -0.121286 7.05234 0.0218443 -0.119822 7.05232 0.00264642 -0.121768 -13.7101 5.97469 6.78495 -13.6165 7.21235 8.28436 -0.0 0.0 -0.0 4.87957 18.3392 9.57809 -23.4375 -10.5247 64.5658 0.389347 -10.9169 0.037205 39.2739 -0.312038 -4.91039 -2.50394 17.9596 -7.89088 -0.0 0.0 -0.0 11.3835 14.2283 -22.8217 91.3662 -66.0218 -0.481241 0.1786 5.0561 -0.00788542 85.4429 4.47963 8.88635 -10.8022 -31.2724 53.9371 0.0 0.0 0.0 45.3521 -4.33867 -2.02846 -19.1335 0.304942 2.90674 19.9012 23.4234 -2.83177 31.2403 -0.0 -0.0 -0.0 0.0 -0.0 15.4914 28.8563 -0.536082 -39.997 0.466579 -5.99787 38.7669 -9.29133 4.76198 13.1041 -0.0 -0.0 0.0 0.0 0.0 
3026.67 634.302 -734.818 -27.6693 49.8443 23.5623 6.7292 0.0659809 0.175345 6.72921 0.0546895 0.179188 6.72936 0.0375732 0.183542 6.72932 0.0660887 0.175305 -13.5894 4.01104 6.90144 -13.4629 3.376 7.79009 -0.0 0.0 -0.0 3.5116 18.5555 7.48042 -19.6221 -12.8292 66.5683 0.510599 -14.1946 0.0635745 39.4654 -0.321747 -4.93286 -2.34382 17.8812 -6.9536 -0.0 0.0 -0.0 11.2313 11.9659 -22.5329 90.7149 -65.3784 3.20816 0.185583 5.25269 -0.00851273 85.3325 4.46638 8.88135 -10.3276 -31.4191 48.9697 0.0 0.0 0.0 43.1936 -5.00821 -0.720239 -19.0881 0.305375 2.89978 24.749 24.1016 -3.45954 28.3717 -0.0 -0.0 -0.0 0.0 -0.0 18.5641 22.9111 -0.417541 -45.4905 0.852486 -6.74915 37.0503 -4.31199 4.5939 11.905 -0.0 -0.0 0.0 0.0 0.0 
2997.65 640.484 -745.231 -26.9754 50.5266 22.8533 6.51919 -0.00550069 0.210368 6.51922 -0.0188758 0.209592 6.51912 -0.0392874 0.20674 6.51906 -0.00614369 0.21035 -12.2313 5.24159 6.38805 -12.1361 5.856 7.61006 -0.0 0.0 -0.0 3.96616 18.5118 8.17356 -20.3536 -17.0607 64.7778 0.785401 -21.2592 0.147406 40.0029 -0.349411 -4.99579 -2.33752 13.2406 -9.268 -0.0 0.0 -0.0 10.4659 10.2562 -20.8537 90.4273 -66.6011 5.61811 0.180167 5.10024 -0.00802422 85.1722 4.44716 8.87404 -9.41814 -30.5261 42.6922 0.0 0.0 0.0 40.277 -6.96967 0.271754 -18.211 0.312641 2.7654 25.3921 24.8881 -3.55436 30.6859 -0.0 -0.0 -0.0 0.0 -0.0 21.4635 22.0636 -1.64276 -51.6776 1.37139 -7.54742 35.6645 -6.73718 4.46354 11.1476 -0.0 -0.0 0.0 0.0 0.0 
